<svg fill="white" xmlns="http://www.w3.org/2000/svg" viewBox="0 0 330 330" style="enable-background:new 0 0 330 330" xml:space="preserve"><path d="M165 0C74.019 0 0 74.019 0 165s74.019 165 165 165 165-74.019 165-165S255.982 0 165 0zm0 300c-74.439 0-135-60.56-135-135S90.561 30 165 30s135 60.561 135 135-60.561 135-135 135z"/><path d="M164.999 179.823c-.001 0 .001 0 0 0-23.238 0-45.087 9.05-61.518 25.482-5.858 5.857-5.858 15.355 0 21.213 2.929 2.929 6.768 4.394 10.607 4.394s7.678-1.465 10.606-4.394c10.766-10.766 25.08-16.694 40.305-16.694 15.225 0 29.539 5.929 40.305 16.694 5.857 5.857 15.355 5.857 21.213 0 5.858-5.857 5.858-15.355 0-21.213-16.432-16.432-38.279-25.482-61.518-25.482zM115.14 147.14c3.73-3.72 5.86-8.88 5.86-14.14s-2.13-10.42-5.86-14.141C111.42 115.14 106.26 113 101 113c-5.27 0-10.42 2.14-14.14 5.859C83.14 122.58 81 127.74 81 133s2.14 10.42 5.86 14.14c3.72 3.72 8.88 5.86 14.14 5.86s10.42-2.14 14.14-5.86zM229 113c-5.27 0-10.42 2.14-14.14 5.859C211.13 122.58 209 127.74 209 133s2.13 10.42 5.86 14.14c3.72 3.72 8.88 5.86 14.14 5.86s10.42-2.141 14.14-5.86c3.73-3.72 5.86-8.88 5.86-14.14s-2.13-10.42-5.86-14.141C239.42 115.14 234.26 113 229 113z"/></svg>