<svg fill="white" xmlns="http://www.w3.org/2000/svg" viewBox="0 0 330 330" style="enable-background:new 0 0 330 330" xml:space="preserve"><path d="M165 0C74.019 0 0 74.019 0 165s74.019 165 165 165 165-74.019 165-165S255.981 0 165 0zm0 300c-74.439 0-135-60.561-135-135S90.561 30 165 30s135 60.561 135 135-60.561 135-135 135z"/><path d="M215.912 200.912H114.088c-8.284 0-15 6.716-15 15 0 8.284 6.716 15 15 15h101.824c8.284 0 15-6.716 15-15 0-8.284-6.716-15-15-15zM115.14 147.14c3.73-3.72 5.86-8.88 5.86-14.14s-2.13-10.42-5.86-14.141C111.42 115.14 106.26 113 101 113c-5.271 0-10.42 2.14-14.141 5.859C83.13 122.58 81 127.729 81 133c0 5.26 2.13 10.42 5.859 14.14C90.58 150.859 95.74 153 101 153s10.42-2.141 14.14-5.86zM229 113c-5.27 0-10.42 2.14-14.141 5.859C211.14 122.58 209 127.729 209 133c0 5.27 2.14 10.42 5.859 14.14C218.58 150.86 223.74 153 229 153s10.42-2.141 14.14-5.86c3.72-3.72 5.86-8.88 5.86-14.14s-2.141-10.42-5.86-14.141A20.137 20.137 0 0 0 229 113z"/></svg>